<svg xmlns="http://www.w3.org/2000/svg" viewBox="0 0 960 300" width="960" height="300" font-family="-apple-system,BlinkMacSystemFont,Segoe UI,Roboto,Helvetica,Arial,sans-serif" role="img" aria-label="Confidence grading system">
<rect width="960" height="300" rx="16" fill="#0d1428"/>
<text x="32" y="44" font-size="19" font-weight="700" fill="#e8ecf8">The confidence grading system</text>
<text x="32" y="68" font-size="13.5" fill="#7d8bb0">Every persona shows how strong its evidence is — a safeguard against AI positivity bias.</text>
<rect x="32" y="92" width="288" height="180" rx="12" fill="#111a33" stroke="#26305066"/>
<g transform="translate(88,150)"><circle cx="0.0" cy="0.0" r="1.5" fill="none" stroke="#9aa4c0" stroke-width="0.8" stroke-dasharray="1.4 1.6" opacity="0.5"/>
<circle cx="-2.9" cy="2.6" r="1.9" fill="none" stroke="#9aa4c0" stroke-width="0.8" stroke-dasharray="1.4 1.6" opacity="0.5"/>
<circle cx="0.5" cy="-5.5" r="2.3" fill="none" stroke="#9aa4c0" stroke-width="0.8" stroke-dasharray="1.4 1.6" opacity="0.5"/>
<circle cx="4.1" cy="5.4" r="1.5" fill="none" stroke="#9aa4c0" stroke-width="0.8" stroke-dasharray="1.4 1.6" opacity="0.5"/>
<circle cx="-7.7" cy="-1.4" r="1.9" fill="none" stroke="#9aa4c0" stroke-width="0.8" stroke-dasharray="1.4 1.6" opacity="0.5"/>
<circle cx="7.4" cy="-4.7" r="2.3" fill="none" stroke="#9aa4c0" stroke-width="0.8" stroke-dasharray="1.4 1.6" opacity="0.5"/>
<circle cx="-2.5" cy="9.3" r="1.5" fill="none" stroke="#9aa4c0" stroke-width="0.8" stroke-dasharray="1.4 1.6" opacity="0.5"/>
<circle cx="-4.8" cy="-9.2" r="1.9" fill="none" stroke="#9aa4c0" stroke-width="0.8" stroke-dasharray="1.4 1.6" opacity="0.5"/>
<circle cx="10.4" cy="3.8" r="2.3" fill="none" stroke="#9aa4c0" stroke-width="0.8" stroke-dasharray="1.4 1.6" opacity="0.5"/>
<circle cx="-10.9" cy="4.5" r="1.5" fill="none" stroke="#9aa4c0" stroke-width="0.8" stroke-dasharray="1.4 1.6" opacity="0.5"/>
<circle cx="5.3" cy="-11.2" r="1.9" fill="none" stroke="#9aa4c0" stroke-width="0.8" stroke-dasharray="1.4 1.6" opacity="0.5"/>
<circle cx="3.9" cy="12.4" r="2.3" fill="none" stroke="#9aa4c0" stroke-width="0.8" stroke-dasharray="1.4 1.6" opacity="0.5"/>
<circle cx="-11.8" cy="-6.8" r="1.5" fill="none" stroke="#9aa4c0" stroke-width="0.8" stroke-dasharray="1.4 1.6" opacity="0.5"/>
<circle cx="13.8" cy="-3.0" r="1.9" fill="none" stroke="#9aa4c0" stroke-width="0.8" stroke-dasharray="1.4 1.6" opacity="0.5"/>
<circle cx="-8.4" cy="12.0" r="2.3" fill="none" stroke="#9aa4c0" stroke-width="0.8" stroke-dasharray="1.4 1.6" opacity="0.5"/>
<circle cx="-2.0" cy="-15.1" r="1.5" fill="none" stroke="#9aa4c0" stroke-width="0.8" stroke-dasharray="1.4 1.6" opacity="0.5"/>
<circle cx="12.0" cy="10.1" r="1.9" fill="none" stroke="#9aa4c0" stroke-width="0.8" stroke-dasharray="1.4 1.6" opacity="0.5"/>
<circle cx="-16.2" cy="0.7" r="2.3" fill="none" stroke="#9aa4c0" stroke-width="0.8" stroke-dasharray="1.4 1.6" opacity="0.5"/>
<circle cx="11.8" cy="-11.7" r="1.5" fill="none" stroke="#9aa4c0" stroke-width="0.8" stroke-dasharray="1.4 1.6" opacity="0.5"/>
<circle cx="-0.8" cy="17.1" r="1.9" fill="none" stroke="#9aa4c0" stroke-width="0.8" stroke-dasharray="1.4 1.6" opacity="0.5"/>
<circle cx="-11.2" cy="-13.5" r="2.3" fill="none" stroke="#9aa4c0" stroke-width="0.8" stroke-dasharray="1.4 1.6" opacity="0.5"/>
<circle cx="17.8" cy="2.4" r="1.5" fill="none" stroke="#9aa4c0" stroke-width="0.8" stroke-dasharray="1.4 1.6" opacity="0.5"/>
<circle cx="-15.1" cy="10.5" r="1.9" fill="none" stroke="#9aa4c0" stroke-width="0.8" stroke-dasharray="1.4 1.6" opacity="0.5"/>
<circle cx="4.1" cy="-18.4" r="2.3" fill="none" stroke="#9aa4c0" stroke-width="0.8" stroke-dasharray="1.4 1.6" opacity="0.5"/>
<circle cx="9.6" cy="16.7" r="1.5" fill="none" stroke="#9aa4c0" stroke-width="0.8" stroke-dasharray="1.4 1.6" opacity="0.5"/>
<circle cx="-18.7" cy="-6.0" r="1.9" fill="none" stroke="#9aa4c0" stroke-width="0.8" stroke-dasharray="1.4 1.6" opacity="0.5"/></g>
<circle cx="144" cy="126" r="6" fill="none" stroke="#9aa4c0" stroke-width="1.4" stroke-dasharray="2 2"/>
<text x="160" y="132" font-size="17" font-weight="700" fill="#e8ecf8">assumption</text>
<text x="144" y="154" font-size="12.5" fill="#9aa4c0">Idea only · 0 interviews</text>
<line x1="52" y1="210" x2="300" y2="210" stroke="#26305066"/>
<text x="52" y="234" font-size="12.5" font-weight="600" fill="#cdd6ee">Do not use for important</text>
<text x="52" y="251" font-size="12.5" font-weight="600" fill="#cdd6ee">decisions before validating</text>
<rect x="340" y="92" width="288" height="180" rx="12" fill="#111a33" stroke="#26305066"/>
<g transform="translate(396,150)"><circle cx="0.0" cy="0.0" r="1.2" fill="#7dd3fc" opacity="0.72"/>
<circle cx="-2.9" cy="2.6" r="1.6" fill="#7dd3fc" opacity="0.72"/>
<circle cx="0.5" cy="-5.5" r="2.0" fill="#7dd3fc" opacity="0.72"/>
<circle cx="4.1" cy="5.4" r="1.2" fill="#7dd3fc" opacity="0.72"/>
<circle cx="-7.7" cy="-1.4" r="1.6" fill="#7dd3fc" opacity="0.72"/>
<circle cx="7.4" cy="-4.7" r="2.0" fill="#7dd3fc" opacity="0.72"/>
<circle cx="-2.5" cy="9.3" r="1.2" fill="#7dd3fc" opacity="0.72"/>
<circle cx="-4.8" cy="-9.2" r="1.6" fill="#7dd3fc" opacity="0.72"/>
<circle cx="10.4" cy="3.8" r="2.0" fill="#7dd3fc" opacity="0.72"/>
<circle cx="-10.9" cy="4.5" r="1.2" fill="#7dd3fc" opacity="0.72"/>
<circle cx="5.3" cy="-11.2" r="1.6" fill="#7dd3fc" opacity="0.72"/>
<circle cx="3.9" cy="12.4" r="2.0" fill="#7dd3fc" opacity="0.72"/>
<circle cx="-11.8" cy="-6.8" r="1.2" fill="#7dd3fc" opacity="0.72"/>
<circle cx="13.8" cy="-3.0" r="1.6" fill="#7dd3fc" opacity="0.72"/>
<circle cx="-8.4" cy="12.0" r="2.0" fill="#7dd3fc" opacity="0.72"/>
<circle cx="-2.0" cy="-15.1" r="1.2" fill="#7dd3fc" opacity="0.72"/>
<circle cx="12.0" cy="10.1" r="1.6" fill="#7dd3fc" opacity="0.72"/>
<circle cx="-16.2" cy="0.7" r="2.0" fill="#7dd3fc" opacity="0.72"/>
<circle cx="11.8" cy="-11.7" r="1.2" fill="#7dd3fc" opacity="0.72"/>
<circle cx="-0.8" cy="17.1" r="1.6" fill="#7dd3fc" opacity="0.72"/>
<circle cx="-11.2" cy="-13.5" r="2.0" fill="#7dd3fc" opacity="0.72"/>
<circle cx="17.8" cy="2.4" r="1.2" fill="#7dd3fc" opacity="0.72"/>
<circle cx="-15.1" cy="10.5" r="1.6" fill="#7dd3fc" opacity="0.72"/>
<circle cx="4.1" cy="-18.4" r="2.0" fill="#7dd3fc" opacity="0.72"/>
<circle cx="9.6" cy="16.7" r="1.2" fill="#7dd3fc" opacity="0.72"/>
<circle cx="-18.7" cy="-6.0" r="1.6" fill="#7dd3fc" opacity="0.72"/></g>
<circle cx="452" cy="126" r="6" fill="#7dd3fc" stroke="#7dd3fc" stroke-width="0" stroke-dasharray="0"/>
<text x="468" y="132" font-size="17" font-weight="700" fill="#e8ecf8">partial</text>
<text x="452" y="154" font-size="12.5" fill="#9aa4c0">1–2 interviews back</text>
<text x="452" y="171" font-size="12.5" fill="#9aa4c0">some attributes</text>
<line x1="360" y1="210" x2="608" y2="210" stroke="#26305066"/>
<text x="360" y="234" font-size="12.5" font-weight="600" fill="#cdd6ee">Validated vs. assumed</text>
<text x="360" y="251" font-size="12.5" font-weight="600" fill="#cdd6ee">marked per attribute</text>
<rect x="648" y="92" width="288" height="180" rx="12" fill="#111a33" stroke="#26305066"/>
<g transform="translate(704,150)"><circle cx="0.0" cy="0.0" r="1.2" fill="#6ee7a0" opacity="1.0"/>
<circle cx="-2.9" cy="2.6" r="1.6" fill="#6ee7a0" opacity="1.0"/>
<circle cx="0.5" cy="-5.5" r="2.0" fill="#6ee7a0" opacity="1.0"/>
<circle cx="4.1" cy="5.4" r="1.2" fill="#6ee7a0" opacity="1.0"/>
<circle cx="-7.7" cy="-1.4" r="1.6" fill="#6ee7a0" opacity="1.0"/>
<circle cx="7.4" cy="-4.7" r="2.0" fill="#6ee7a0" opacity="1.0"/>
<circle cx="-2.5" cy="9.3" r="1.2" fill="#6ee7a0" opacity="1.0"/>
<circle cx="-4.8" cy="-9.2" r="1.6" fill="#6ee7a0" opacity="1.0"/>
<circle cx="10.4" cy="3.8" r="2.0" fill="#6ee7a0" opacity="1.0"/>
<circle cx="-10.9" cy="4.5" r="1.2" fill="#6ee7a0" opacity="1.0"/>
<circle cx="5.3" cy="-11.2" r="1.6" fill="#6ee7a0" opacity="1.0"/>
<circle cx="3.9" cy="12.4" r="2.0" fill="#6ee7a0" opacity="1.0"/>
<circle cx="-11.8" cy="-6.8" r="1.2" fill="#6ee7a0" opacity="1.0"/>
<circle cx="13.8" cy="-3.0" r="1.6" fill="#6ee7a0" opacity="1.0"/>
<circle cx="-8.4" cy="12.0" r="2.0" fill="#6ee7a0" opacity="1.0"/>
<circle cx="-2.0" cy="-15.1" r="1.2" fill="#6ee7a0" opacity="1.0"/>
<circle cx="12.0" cy="10.1" r="1.6" fill="#6ee7a0" opacity="1.0"/>
<circle cx="-16.2" cy="0.7" r="2.0" fill="#6ee7a0" opacity="1.0"/>
<circle cx="11.8" cy="-11.7" r="1.2" fill="#6ee7a0" opacity="1.0"/>
<circle cx="-0.8" cy="17.1" r="1.6" fill="#6ee7a0" opacity="1.0"/>
<circle cx="-11.2" cy="-13.5" r="2.0" fill="#6ee7a0" opacity="1.0"/>
<circle cx="17.8" cy="2.4" r="1.2" fill="#6ee7a0" opacity="1.0"/>
<circle cx="-15.1" cy="10.5" r="1.6" fill="#6ee7a0" opacity="1.0"/>
<circle cx="4.1" cy="-18.4" r="2.0" fill="#6ee7a0" opacity="1.0"/>
<circle cx="9.6" cy="16.7" r="1.2" fill="#6ee7a0" opacity="1.0"/>
<circle cx="-18.7" cy="-6.0" r="1.6" fill="#6ee7a0" opacity="1.0"/></g>
<circle cx="760" cy="126" r="6" fill="#6ee7a0" stroke="#6ee7a0" stroke-width="0" stroke-dasharray="0"/>
<text x="776" y="132" font-size="17" font-weight="700" fill="#e8ecf8">validated</text>
<text x="760" y="154" font-size="12.5" fill="#9aa4c0">3+ interviews back</text>
<text x="760" y="171" font-size="12.5" fill="#9aa4c0">core attributes</text>
<line x1="668" y1="210" x2="916" y2="210" stroke="#26305066"/>
<text x="668" y="234" font-size="12.5" font-weight="600" fill="#cdd6ee">Per-attribute source</text>
<text x="668" y="251" font-size="12.5" font-weight="600" fill="#cdd6ee">citations [I-NN]</text>
</svg>